<svg width="2000" height="2000" viewBox="0 0 2000 2000" fill="none" xmlns="http://www.w3.org/2000/svg">
<path d="M937.331 18.4234C733.415 34.7988 563.283 98.2317 406.425 216.651C369.192 244.748 343.509 267.156 306.449 304.389C204.405 406.261 129.94 521.06 79.9521 653.27C46.6843 741.007 26.5168 834.26 19.2771 934.409C16.6916 968.366 18.2429 1060.41 22.0351 1096.27C40.4789 1276.91 104.429 1442.39 211.3 1585.46C369.192 1796.96 600.343 1934.68 859.763 1971.92C947.845 1984.5 1063.51 1983.98 1151.42 1970.54C1220.02 1960.02 1297.93 1938.82 1363.95 1912.79C1395.32 1900.38 1460.65 1868.32 1492.37 1849.7C1631.82 1767.83 1745.93 1657.85 1832.11 1521.85C1914.51 1391.88 1964.15 1243.99 1978.46 1086.79C1981.39 1052.48 1982.08 959.402 1979.32 924.756C1963.29 717.737 1885.72 527.266 1753 369.028C1622.85 213.721 1451.34 104.092 1254.5 50.1399C1208.3 37.5567 1149.35 27.042 1094.19 21.5261C1069.71 18.9405 957.671 16.8721 937.331 18.4234ZM1070.23 61.3441C1131.59 66.3429 1175.55 73.5825 1232.09 88.0617C1384.81 127.018 1520.29 200.621 1637.16 308.181C1755.93 417.292 1845.73 557.431 1895.55 711.704C1945.02 864.598 1953.98 1028.35 1921.4 1188.66C1869.52 1445.66 1707.83 1671.99 1478.58 1809.2C1274.32 1931.41 1024.03 1970.36 789.953 1916.58C620.339 1877.63 469.685 1795.41 343.681 1673.02C308.173 1638.55 273.009 1598.39 245.257 1560.98C122.356 1394.81 59.0951 1203.48 59.0951 998.186C59.0951 713.945 188.374 444.527 409.872 266.984C542.254 160.803 694.803 93.75 862.349 68.2389C922.507 59.1032 1007.66 56.3453 1070.23 61.3441Z" fill="#ECDECA"/>
<path d="M946.811 106.333C884.412 110.47 820.807 120.812 764.097 136.326C494.162 209.929 271.457 409.018 168.034 669.128C134.422 753.418 113.565 846.671 107.187 940.614C104.601 977.329 106.153 1055.59 109.945 1091.27C125.975 1243.3 178.032 1384.3 263.184 1507.37C317.998 1586.32 390.566 1661.47 467.617 1718.53C570.351 1794.72 683.599 1846.08 809.775 1873.66C983.009 1911.41 1165.21 1896.24 1334.13 1829.71C1363.43 1818.33 1429.63 1785.24 1458.93 1767.48C1585.45 1690.95 1692.15 1584.6 1766.78 1460.49C1829.87 1355.69 1872.1 1233.82 1886.93 1114.54C1894.17 1056.79 1896.06 979.915 1891.58 928.376C1876.41 754.797 1819.36 602.937 1718.18 466.418C1670.6 402.296 1603.38 334.381 1540.63 287.151C1487.37 247.161 1452.03 225.27 1396.7 197.69C1300.17 149.771 1204.51 122.364 1089.02 109.436C1066.26 107.023 969.909 104.782 946.811 106.333ZM1042.48 122.536C1267.77 134.602 1470.82 226.476 1627.68 387.3C1762.99 526.059 1846.77 699.465 1870.55 889.592C1902.61 1145.39 1822.98 1397.4 1649.4 1589.25C1591.65 1653.2 1520.98 1710.6 1443.24 1757.14C1412.56 1775.41 1359.81 1801.1 1320.86 1816.44C1247.08 1845.74 1174 1863.49 1088.16 1873.32C1055.41 1877.11 958.532 1877.46 923.541 1874.18C807.19 1862.8 711.351 1835.74 610.858 1785.75C516.743 1739.04 447.449 1688.54 371.95 1611.66C262.149 1499.79 185.961 1363.61 148.039 1211.93C129.94 1139.88 122.356 1076.1 122.356 999.048C122.356 900.451 136.145 814.955 166.828 723.253C181.652 678.436 193.545 649.822 214.23 608.625C233.88 569.325 244.74 550.364 268.527 514.683C367.124 365.925 507.435 251.643 675.325 183.728C789.091 137.705 919.576 115.986 1042.48 122.536Z" fill="#ECDECA"/>
<path d="M892.859 172.007C892.342 172.869 893.548 182.349 895.272 193.209C896.996 204.068 898.547 214.41 898.547 215.962C898.547 217.686 890.618 210.446 879.414 198.38C862.349 179.936 859.591 177.695 854.592 177.695C851.317 177.695 848.387 178.212 848.042 178.902C847.525 179.764 849.421 193.898 852.179 210.446C854.765 226.994 857.006 241.99 857.006 243.541C857.178 245.61 858.557 246.644 861.315 246.644C870.623 246.644 870.623 246.644 866.486 221.305L862.866 197.69L882.861 218.72C899.237 236.129 903.718 239.922 907.683 239.749C910.268 239.749 912.854 238.543 913.371 237.164C913.888 235.785 912.165 220.271 909.579 202.689L904.753 170.8H899.237C896.134 170.8 893.204 171.317 892.859 172.007Z" fill="#ECDECA"/>
<path d="M1111.43 176.316C1107.29 193.726 1100.91 239.06 1102.29 239.921C1105.91 242.162 1134.7 245.265 1140.9 244.058C1151.42 242.162 1161.41 230.958 1164 218.375C1169 194.07 1159.35 180.625 1132.63 175.282C1114.87 171.662 1112.46 171.662 1111.43 176.316ZM1141.94 189.072C1148.83 192.692 1151.93 198.207 1151.93 207.516C1151.93 216.996 1148.83 225.442 1143.66 230.096C1140.73 232.509 1137.45 233.371 1129.35 233.199C1123.49 233.027 1117.98 232.337 1116.94 231.303C1115.74 230.096 1116.25 223.546 1118.15 210.963C1122.8 182.522 1121.77 184.418 1130.21 185.624C1134.01 186.314 1139.35 187.865 1141.94 189.072Z" fill="#ECDECA"/>
<path d="M730.14 210.791C719.453 214.583 710.662 218.72 710.662 219.582C710.662 221.305 731.346 281.291 732.381 282.67C732.898 283.359 769.268 271.293 772.543 269.225C775.301 267.501 773.577 260.434 770.302 260.434C769.096 260.434 762.373 262.33 755.478 264.743C748.583 267.156 742.206 269.052 741.689 269.052C740.999 269.052 739.62 265.95 738.414 261.985C737.207 258.021 735.828 253.884 735.483 252.849C734.966 251.47 739.792 248.885 748.583 245.955C761.167 241.473 762.373 240.611 761.339 237.336C760.65 235.44 759.96 233.371 759.443 232.854C759.098 232.51 752.548 234.233 744.964 236.646L731.174 241.301L729.45 236.646C724.451 223.719 724.624 223.719 740.31 218.203C748.066 215.617 754.789 213.204 755.134 213.032C756.168 212.342 752.031 203.551 750.824 203.723C749.962 203.723 740.654 206.998 730.14 210.791Z" fill="#ECDECA"/>
<path d="M1259.84 220.271C1246.39 256.469 1241.57 269.742 1241.57 271.466C1241.57 273.879 1281.56 288.531 1283.11 286.634C1283.8 285.945 1284.83 283.876 1285.35 281.98C1286.21 278.878 1284.66 277.843 1271.73 273.362C1263.63 270.604 1257.08 267.501 1257.08 266.467C1257.08 265.605 1258.29 261.123 1260.01 256.642L1262.77 248.713L1276.56 253.711C1284.14 256.469 1290.52 258.538 1290.87 258.365C1291.04 258.021 1291.73 255.952 1292.42 253.539C1293.45 249.402 1292.76 248.885 1281.21 244.92C1274.32 242.507 1268.46 240.094 1268.11 239.404C1266.91 237.508 1271.22 223.891 1273.46 223.201C1274.32 222.857 1281.56 224.753 1289.14 227.511L1303.1 232.682L1305.17 228.2C1306.21 225.787 1306.9 223.546 1306.72 223.374C1305.69 222.512 1267.42 208.722 1265.87 208.722C1265.01 208.722 1262.25 213.893 1259.84 220.271Z" fill="#ECDECA"/>
<path d="M1378.43 294.391C1369.12 310.077 1361.19 323.522 1360.85 324.039C1360.5 325.246 1370.85 331.796 1371.54 330.762C1371.88 330.589 1377.4 321.281 1383.95 310.422L1395.84 290.599L1396.87 306.112C1397.56 314.559 1398.08 327.659 1398.25 334.899C1398.43 347.999 1398.6 348.344 1403.77 351.102C1408.25 353.342 1409.63 353.515 1411.35 351.446C1412.56 350.24 1420.66 337.139 1429.45 322.488L1445.31 295.943L1441.52 292.84C1439.45 291.116 1436.86 289.737 1435.66 289.737C1434.62 289.737 1428.42 298.873 1421.7 310.077L1409.63 330.245L1408.25 302.665C1407.56 287.496 1406.53 274.224 1406.18 273.017C1405.84 271.81 1403.25 269.742 1400.49 268.363L1395.67 265.777L1378.43 294.391Z" fill="#ECDECA"/>
<path d="M601.723 269.225C585.347 273.017 573.626 287.152 573.798 302.837C574.143 320.075 588.278 338.001 603.791 340.587C616.547 342.828 631.371 335.243 636.369 324.039C639.127 318.006 639.472 317.834 641.368 320.937C643.437 324.039 643.781 324.039 648.78 321.626C651.71 320.075 653.779 318.351 653.434 317.661C651.021 312.146 635.507 286.29 634.473 286.29C633.956 286.29 627.923 289.392 621.201 293.357C609.824 299.907 609.135 300.597 610.858 304.044C612.065 306.113 613.099 308.009 613.271 308.353C613.616 308.698 617.064 306.974 621.028 304.389C624.993 301.803 628.613 300.252 629.13 300.769C629.819 301.286 630.336 305.251 630.336 309.388C630.509 315.248 629.474 318.006 626.372 321.454C621.201 326.97 612.237 330.072 605.687 328.521C592.07 325.591 581.555 301.114 589.312 290.082C594.483 282.67 607.756 278.705 613.961 282.67C616.719 284.394 628.44 278.188 626.889 275.775C623.786 270.604 610.514 267.156 601.723 269.225Z" fill="#ECDECA"/>
<path d="M467.1 363.167C452.276 376.095 450.552 378.164 452.448 380.749C461.929 393.85 494.507 429.358 496.403 428.669C497.61 428.152 505.539 421.774 513.985 414.362L529.499 400.917L525.879 397.125L522.259 393.333L510.193 404.02L498.299 414.707L491.577 407.122L485.027 399.366L492.783 392.643C497.093 388.851 502.092 384.542 503.988 382.99C507.09 380.405 507.09 380.06 504.16 376.268L501.057 372.303L490.025 381.956L478.994 391.436L473.305 385.921C470.203 382.99 467.617 379.543 467.617 378.681C467.617 377.647 472.788 371.958 479.166 366.098L490.887 355.411L487.44 351.963L483.992 348.516L467.1 363.167Z" fill="#ECDECA"/>
<path d="M1001.28 411.776C982.147 470.555 966.979 487.965 883.034 548.123C800.295 607.591 777.369 634.481 769.613 682.573C767.372 696.19 767.2 701.706 768.923 717.392C773.233 754.969 784.264 781.687 804.604 803.233C825.634 825.469 851.662 839.604 882.861 845.465C923.713 853.221 961.98 843.224 986.801 818.23C992.835 812.369 999.212 804.612 1001.11 801.165C1003 797.717 1005.07 794.787 1005.59 794.787C1006.28 794.787 1007.83 801.51 1009.04 809.783C1013.35 840.466 1006.28 867.873 983.182 910.276C965.944 941.648 959.567 954.921 956.292 965.78L953.534 975.433L963.704 985.603L973.874 995.601L975.942 985.948C978.011 975.433 984.044 956.817 999.04 912.862C1013.52 870.458 1017.31 845.465 1013.52 815.644L1012.14 804.612L1022.83 814.61C1044.03 834.26 1069.37 842.362 1104.19 840.81C1129.53 839.776 1146.25 835.639 1168.65 824.952C1198.65 810.818 1220.19 791.857 1229.85 771.172C1242.77 743.937 1243.12 695.501 1230.71 661.716C1220.02 632.24 1191.23 599.662 1144.18 563.809C1089.02 521.922 1081.61 515.717 1062.13 496.583C1033.86 468.659 1020.41 446.251 1010.07 410.742L1006.11 396.78L1001.28 411.776Z" fill="#ECDECA"/>
<path d="M1577.69 451.25C1563.9 463.316 1552.7 473.658 1552.7 474.52C1552.7 475.21 1558.39 482.104 1565.28 489.689C1574.94 500.204 1579.24 503.651 1583.73 504.513C1596.14 506.754 1606.31 497.446 1604.93 485.38C1604.24 480.036 1604.58 479.864 1608.38 481.243C1621.99 486.414 1633.89 469.177 1626.13 455.904C1622.34 449.526 1605.1 429.359 1603.55 429.359C1603.03 429.531 1591.48 439.356 1577.69 451.25ZM1613.03 455.387L1617.86 462.282L1614.41 466.936C1612.51 469.521 1609.75 471.762 1608.2 472.107C1605.27 472.796 1591.48 461.075 1591.48 457.972C1591.48 456.938 1594.41 453.663 1597.86 450.56C1605.1 444.527 1605.79 444.7 1613.03 455.387ZM1589.41 471.073C1595.96 479.691 1596.65 486.586 1591.14 490.378C1585.28 494.515 1582.86 493.826 1574.94 485.035L1567.52 477.106L1574.76 470.556C1578.73 466.936 1582.35 464.005 1582.86 463.833C1583.38 463.833 1586.31 467.108 1589.41 471.073Z" fill="#ECDECA"/>
<path d="M371.95 463.143C355.058 471.934 347.301 492.619 355.403 508.305C367.124 531.058 394.876 538.298 411.251 522.784C417.974 516.406 421.076 510.029 421.076 502.272C421.076 497.273 421.594 496.411 423.145 497.963C426.248 501.065 429.006 500.376 432.108 495.894C434.694 491.757 434.694 491.585 420.559 480.381C412.803 474.175 405.908 469.004 405.391 469.004C404.873 469.004 400.392 474.175 395.221 480.553C386.602 491.24 386.257 492.102 389.188 494.343C393.842 497.618 394.531 497.273 399.702 490.551C404.873 483.656 407.631 484.345 410.734 493.998C414.354 505.202 403.494 518.992 391.084 518.992C379.362 518.992 364.194 504.685 364.194 493.826C364.194 483.483 375.743 471.245 383.844 472.796C386.947 473.486 389.015 472.452 391.773 468.659C393.669 465.901 394.876 462.971 394.359 462.109C392.635 459.351 377.639 460.041 371.95 463.143Z" fill="#ECDECA"/>
<path d="M1663.88 563.981C1648.19 573.461 1635.61 582.08 1635.95 583.114C1636.3 584.321 1641.3 593.111 1646.99 602.764C1656.98 619.312 1657.85 620.174 1661.64 618.45C1663.88 617.588 1665.6 616.037 1665.6 615.347C1665.6 614.486 1662.16 607.935 1657.85 600.696C1649.23 586.217 1649.05 587.078 1660.78 581.045L1667.15 577.598L1674.39 589.664C1678.36 596.387 1681.98 601.73 1682.67 601.73C1683.36 601.73 1685.43 600.696 1687.15 599.317C1690.25 597.076 1690.08 596.387 1683.01 584.493C1678.88 577.77 1675.94 571.91 1676.29 571.737C1679.91 568.979 1689.73 563.808 1691.11 563.808C1691.98 563.808 1696.11 569.497 1700.08 576.219C1704.21 583.114 1707.66 588.975 1708.01 589.319C1708.18 589.664 1710.42 588.802 1712.83 587.596L1717.31 585.182L1705.94 565.877C1699.73 555.19 1694.04 546.571 1693.53 546.743C1692.84 546.916 1679.56 554.673 1663.88 563.981Z" fill="#ECDECA"/>
<path d="M1740.24 680.332C1733.17 683.952 1730.41 691.192 1730.24 706.188C1730.24 719.633 1728 724.115 1721.45 724.115C1712.49 724.115 1707.83 712.911 1713.69 704.981C1716.28 701.534 1717.14 698.776 1716.28 695.501C1714.56 688.606 1710.59 688.261 1704.9 694.467C1701.11 698.948 1700.08 701.706 1700.08 708.256C1700.25 728.769 1716.28 743.076 1730.76 735.491C1739.38 731.01 1741.45 726.528 1741.45 712.049C1741.45 697.397 1744.2 691.364 1750.93 691.364C1757.99 691.364 1761.44 702.741 1756.1 708.601C1754.03 710.842 1753.86 712.393 1755.58 716.875C1758.17 723.425 1760.23 723.77 1765.41 718.254C1771.09 712.221 1771.96 702.223 1767.65 692.571C1762.13 680.16 1750.75 674.989 1740.24 680.332Z" fill="#ECDECA"/>
<path d="M238.362 685.331C237.5 687.744 236.638 690.502 236.638 691.364C236.638 692.053 246.291 696.018 258.185 700.155C270.079 704.292 279.731 708.084 279.731 708.601C279.731 709.118 267.321 712.566 252.152 716.358L224.572 723.08L222.676 728.941C221.642 732.044 221.125 734.974 221.47 735.146C221.642 735.491 236.294 740.662 253.876 747.04L285.764 758.244L287.661 752.901C288.695 749.798 289.212 746.868 288.522 746.35C288.005 745.661 278.18 742.041 266.803 737.904C255.427 733.94 245.946 730.32 245.602 730.147C245.429 729.975 255.082 727.217 267.148 724.287C304.036 715.151 301.278 716.185 303.346 709.635L305.242 703.602L276.456 693.432C236.811 679.298 240.431 679.987 238.362 685.331Z" fill="#ECDECA"/>
<path d="M1767.3 818.402C1749.72 821.677 1735.24 824.607 1735.07 824.78C1734.21 825.642 1741.96 866.321 1743.17 867.7C1743.86 868.39 1746.27 868.562 1748.69 868.045L1752.82 867.011L1750.06 852.014C1748.34 843.741 1747.65 836.501 1748.34 835.639C1748.86 834.95 1753.34 833.915 1758.17 833.226L1766.79 832.364L1769.2 845.809C1771.09 856.496 1772.3 859.426 1774.89 859.944C1780.4 861.15 1781.44 858.047 1779.37 846.326C1778.33 840.293 1777.13 834.088 1776.61 832.536C1776.09 830.468 1777.99 829.434 1785.4 828.055L1794.71 826.503L1796.78 835.984C1797.81 841.327 1799.19 848.395 1799.88 851.67C1800.91 856.841 1801.78 857.53 1805.4 857.186C1807.64 856.841 1809.88 856.324 1810.05 855.979C1811.6 854.6 1802.64 812.024 1800.91 812.196C1800.05 812.196 1784.88 815.127 1767.3 818.402Z" fill="#ECDECA"/>
<path d="M196.303 833.915C194.752 839.604 189.58 874.078 190.27 874.768C191.821 876.146 256.633 885.627 257.495 884.593C258.185 884.076 260.081 874.423 261.632 863.046C264.218 845.809 264.39 842.534 262.321 841.155C260.942 840.293 258.702 839.776 257.323 840.121C254.909 840.465 254.22 843.223 251.29 862.701L250.083 871.148L240.603 870.113C235.431 869.596 230.95 868.907 230.605 868.562C230.26 868.217 231.122 861.84 232.501 854.255C234.914 839.948 234.397 838.052 227.847 837.88C225.606 837.88 224.4 840.983 222.676 852.532L220.607 867.183L214.402 866.149C200.44 863.908 200.957 865.115 204.577 845.292C205.783 838.397 206.473 832.364 205.956 831.847C203.715 829.778 197.165 831.157 196.303 833.915Z" fill="#ECDECA"/>
<path d="M1348.78 945.44C1345.68 954.921 1339.47 969.917 1335.16 978.536C1318.79 1011.98 1299.14 1030.25 1223.47 1084.03C1173.14 1119.71 1150.73 1140.22 1135.21 1164.87C1115.39 1196.76 1111.6 1232.1 1123.32 1277.6C1135.9 1327.07 1170.55 1360.17 1224.33 1373.96C1236.91 1377.23 1242.26 1377.58 1262.25 1376.89C1281.38 1376.37 1287.59 1375.34 1296.9 1371.89C1319.31 1363.61 1337.58 1349.65 1348.78 1332.24C1353.95 1323.8 1354.3 1323.62 1355.85 1327.59C1356.71 1329.83 1357.75 1339.48 1358.26 1348.96C1359.81 1377.92 1353.95 1398.61 1333.79 1436.01C1316.89 1467.04 1309.48 1482.72 1305.52 1494.62C1301.38 1506.86 1301.04 1505.48 1310.69 1512.37C1312.24 1513.58 1315.34 1517.2 1317.76 1520.65L1321.89 1526.85L1326.72 1507.72C1329.48 1497.2 1336.54 1474.79 1342.58 1457.9C1358.61 1412.91 1362.74 1394.64 1362.92 1370.51C1363.09 1359.65 1362.4 1346.89 1361.71 1342.07L1360.16 1333.62L1371.54 1344.14C1383.77 1355.69 1398.43 1363.61 1415.83 1368.27C1429.97 1372.06 1461.51 1371.89 1480.3 1367.92C1520.81 1359.48 1562.35 1332.07 1577.18 1304.15C1591.31 1277.26 1592 1222.27 1578.38 1188.83C1565.11 1156.08 1538.91 1127.98 1482.89 1086.1C1400.32 1024.39 1378.6 999.22 1360.68 946.302L1354.47 927.858L1348.78 945.44Z" fill="#ECDECA"/>
<path d="M650.676 946.991C647.573 956.644 641.885 970.779 637.921 978.363C620.511 1012.84 602.757 1029.73 527.085 1083.51C488.474 1110.92 475.374 1121.6 458.998 1138.84C428.833 1170.56 417.802 1198.83 419.87 1238.3C421.938 1277.26 433.832 1309.49 454.172 1331.73C481.407 1361.37 518.467 1377.4 559.836 1377.4C587.933 1377.23 603.446 1372.92 624.648 1358.96C635.68 1351.72 643.092 1344.14 652.572 1330.17C657.916 1322.07 658.261 1322.76 660.501 1342.59C663.604 1370.51 657.916 1394.81 640.851 1427.39C619.132 1468.59 611.031 1485.65 607.928 1495.13L604.825 1505.13L612.754 1512.03C617.236 1515.82 621.373 1520.3 621.89 1522.2C623.441 1527.37 625.51 1524.95 626.889 1516.68C627.578 1512.54 635.335 1487.55 644.298 1461C653.089 1434.46 661.708 1406.19 663.087 1398.26C666.017 1382.92 666.534 1353.79 664.294 1341.55C663.432 1337.59 663.087 1334.31 663.432 1334.31C663.776 1334.31 666.879 1337.41 670.327 1341.21C683.944 1356.2 706.869 1367.06 732.725 1370.68C787.884 1378.61 861.315 1343.96 881.655 1300.7C888.377 1286.22 892.342 1259.33 890.963 1236.92C889.067 1206.58 882.689 1186.93 866.141 1162.11C850.455 1138.32 827.185 1117.12 765.648 1071.1C735.656 1048.52 704.801 1020.59 693.597 1005.6C682.22 990.601 667.741 961.815 662.225 943.544C659.984 935.615 657.743 929.237 657.226 929.237C656.709 929.237 653.779 937.338 650.676 946.991Z" fill="#ECDECA"/>
<path d="M1750.06 961.126V966.987L1774.54 967.504L1798.85 968.021L1775.4 983.535C1752.13 998.876 1751.79 999.048 1751.79 1005.43V1011.98H1786.26H1820.74V1005.94V999.91H1796.26H1771.78L1796.26 983.362C1819.7 967.504 1820.74 966.47 1820.74 960.954V955.093H1785.4H1750.06V961.126Z" fill="#ECDECA"/>
<path d="M212.506 973.537C181.479 974.226 181.479 974.226 181.479 982.845C181.479 989.568 181.824 989.912 190.615 993.705C195.441 995.945 205.783 1000.6 213.368 1004.05L226.985 1010.42L206.473 1021.63C195.096 1027.66 185.271 1033.35 184.409 1034.21C183.547 1035.07 183.547 1038.52 184.065 1041.97L185.271 1048.17H203.887C214.057 1048.17 229.398 1047.66 238.017 1047.14L253.875 1045.93V1039.9V1034.04L230.777 1034.73C218.022 1035.07 207.852 1034.9 208.369 1034.38C208.886 1033.87 216.471 1029.56 225.089 1024.73C239.396 1016.8 240.947 1015.42 241.464 1010.42C241.982 1005.08 241.809 1004.74 223.365 995.945L204.749 986.982L227.158 986.465C239.396 986.293 250.255 985.258 250.945 984.569C251.807 983.707 251.979 980.604 251.29 977.674C250.255 972.675 249.738 972.33 243.016 972.675C239.051 972.847 225.262 973.365 212.506 973.537Z" fill="#ECDECA"/>
<path d="M1769.2 1110.57C1753.51 1111.43 1740.58 1112.3 1740.41 1112.47C1740.24 1112.64 1739.55 1116.09 1738.86 1120.05L1737.65 1127.29L1760.75 1139.01L1783.68 1150.74L1771.61 1151.77C1765.06 1152.46 1753.17 1152.98 1745.41 1153.15L1731.45 1153.32L1730.24 1160.22C1729.55 1163.84 1729.55 1167.8 1730.24 1168.83C1731.1 1170.39 1791.95 1201.76 1792.47 1201.07C1792.64 1200.9 1793.16 1197.97 1793.85 1194.52L1794.88 1188.31L1769.54 1176.42L1744.2 1164.53L1772.3 1163.32C1787.81 1162.63 1800.74 1161.77 1800.91 1161.59C1801.09 1161.25 1801.78 1158.15 1802.47 1154.7L1803.67 1148.32L1779.02 1135.74L1754.37 1123.16L1781.95 1122.29L1809.36 1121.43L1810.57 1117.12C1813.33 1107.3 1817.63 1107.99 1769.2 1110.57Z" fill="#ECDECA"/>
<path d="M229.054 1140.57C212.851 1144.7 199.406 1148.49 199.061 1148.84C198.716 1149.18 199.406 1152.63 200.267 1156.42L202.164 1163.32L225.434 1168.15C238.189 1170.9 248.704 1173.49 248.704 1174.01C248.704 1174.52 240.603 1181.76 230.605 1190.21C218.367 1200.55 212.678 1206.58 213.195 1208.31C213.713 1209.86 214.574 1213.31 215.264 1215.89C215.953 1219.17 217.16 1220.37 219.228 1219.86C221.469 1219.17 239.224 1214.51 276.801 1204.86C283.178 1203.14 283.351 1202.79 282.317 1197.62C281.627 1194.52 280.765 1191.93 280.593 1191.59C280.42 1191.24 270.595 1193.48 259.046 1196.41C247.497 1199.34 237.672 1201.41 237.327 1201.07C236.81 1200.72 243.188 1194.69 251.29 1187.8C259.391 1180.73 265.941 1174.52 265.941 1173.83C265.941 1173.14 265.252 1170.73 264.39 1168.49C263.183 1165.04 260.253 1164.01 243.533 1160.39C232.673 1158.15 225.261 1155.73 226.64 1155.04C227.847 1154.36 237.672 1151.6 248.359 1149.01C268.354 1144.19 269.561 1143.15 266.631 1135.39C265.079 1131.43 261.632 1131.95 229.054 1140.57Z" fill="#ECDECA"/>
<path d="M1696.28 1265.88C1693.53 1271.4 1693.53 1271.4 1699.56 1277.6L1705.59 1283.98L1700.25 1295.7L1695.08 1307.59H1686.29C1677.84 1307.59 1677.32 1307.94 1675.08 1313.11C1672.15 1320 1670.6 1319.66 1707.83 1322.07C1747.65 1324.83 1745.41 1325 1749.03 1317.76C1750.58 1314.14 1751.27 1310.87 1750.58 1310.35C1749.89 1309.66 1737.83 1298.11 1724.04 1284.67L1699.04 1260.19L1696.28 1265.88ZM1733.86 1310.52C1734.72 1311.9 1707.32 1310.87 1705.59 1309.32C1705.42 1309.15 1706.97 1305.18 1709.04 1300.35L1713 1291.74L1723 1300.18C1728.35 1305.01 1733.34 1309.49 1733.86 1310.52Z" fill="#ECDECA"/>
<path d="M286.109 1306.9C262.322 1331.9 261.288 1333.28 262.839 1337.93C263.701 1340.52 265.425 1343.45 266.459 1344.31C268.183 1345.69 337.649 1340.17 339.717 1338.62C340.062 1338.28 339.027 1335.52 337.476 1332.59C334.718 1327.24 334.201 1327.07 325.927 1327.76L317.309 1328.62L311.62 1316.39L306.104 1304.15L311.965 1297.94C317.826 1291.74 317.998 1291.56 315.24 1286.22C313.689 1283.29 312.137 1280.88 311.793 1280.88C311.276 1280.88 299.727 1292.6 286.109 1306.9ZM303.002 1320.35C305.415 1325.18 306.622 1329.31 305.932 1329.66C305.243 1330.17 298.52 1331.04 290.936 1331.73L277.146 1332.93L287.488 1322.42C293.177 1316.56 298.003 1311.9 298.175 1311.9C298.348 1311.9 300.589 1315.7 303.002 1320.35Z" fill="#ECDECA"/>
<path d="M1626.82 1403.95C1614.92 1409.47 1605.79 1424.29 1608.2 1433.94C1609.06 1437.91 1608.89 1437.91 1605.27 1436.01C1601.82 1434.11 1600.96 1434.46 1598.2 1437.91C1596.48 1440.15 1594.93 1442.56 1594.93 1443.08C1594.93 1443.77 1616.48 1459.63 1623.54 1464.11C1624.92 1464.8 1628.37 1461.52 1633.54 1454.28C1642.33 1441.87 1642.68 1440.84 1638.71 1437.56C1635.78 1435.15 1634.23 1436.36 1627.51 1446.35L1624.75 1450.66L1620.96 1444.63C1616.48 1437.05 1616.3 1431.53 1620.79 1424.29C1625.27 1417.05 1634.06 1412.74 1641.81 1414.29C1649.23 1415.67 1660.95 1425.32 1663.88 1432.56C1668.36 1443.42 1659.57 1458.42 1648.19 1459.28C1644.75 1459.45 1641.47 1461.18 1639.57 1463.76C1633.89 1471.17 1635.26 1472.73 1646.47 1471.86C1659.4 1471 1666.98 1465.49 1673.53 1452.39C1679.22 1440.67 1678.53 1430.15 1671.12 1419.64C1661.12 1405.5 1639.92 1397.74 1626.82 1403.95Z" fill="#ECDECA"/>
<path d="M364.883 1421.19C358.161 1427.91 357.471 1433.43 361.608 1447.04C365.228 1458.94 364.883 1464.8 360.574 1467.04C357.816 1468.59 356.092 1468.42 352.817 1466.18C347.301 1462.56 346.095 1459.11 348.163 1453.42C349.37 1449.97 349.025 1447.9 346.612 1444.11C342.303 1438.08 340.751 1438.25 337.304 1444.97C330.237 1458.59 343.682 1480.83 359.023 1480.83C365.4 1480.83 372.985 1475.66 375.57 1469.45C377.984 1463.94 377.811 1462.04 374.536 1449.46C371.261 1436.7 371.261 1435.32 373.674 1431.53C377.122 1426.19 382.121 1426.36 387.809 1431.87C392.118 1436.18 392.463 1440.84 389.36 1448.25C388.498 1450.15 389.705 1452.9 392.29 1456.01L396.6 1460.83L400.22 1454.97C404.874 1447.22 404.874 1440.15 399.875 1430.67C394.704 1421.01 386.43 1415.33 377.639 1415.33C372.123 1415.33 369.537 1416.53 364.883 1421.19Z" fill="#ECDECA"/>
<path d="M1521.84 1523.75C1507.71 1537.88 1506.85 1539.26 1508.92 1542.71C1510.3 1544.61 1511.67 1546.33 1512.19 1546.33C1512.71 1546.33 1518.22 1541.33 1524.26 1535.13L1535.29 1523.92L1542.87 1531.33L1550.29 1538.57L1539.43 1548.4L1528.57 1558.22L1532.36 1562.02L1535.98 1565.81L1546.67 1555.64L1557.35 1545.47L1563.39 1552.19L1569.42 1558.74L1558.04 1570.29C1546.67 1581.84 1546.49 1581.84 1550.11 1585.11C1554.25 1588.91 1553.73 1589.08 1573.73 1569.77L1586.14 1557.88L1562.7 1533.57C1549.77 1520.13 1538.74 1509.1 1538.22 1508.75C1537.53 1508.58 1530.29 1515.3 1521.84 1523.75Z" fill="#ECDECA"/>
<path d="M459.86 1522.89C454.861 1524.96 421.076 1558.91 421.076 1561.84C421.076 1562.53 423.145 1564.6 425.73 1566.15L430.212 1569.25L447.794 1550.81C466.927 1530.99 470.03 1529.44 478.648 1536.16C484.509 1540.81 486.922 1546.85 485.026 1551.85C484.164 1554.09 476.408 1563.22 467.789 1572.53C459.17 1581.67 452.103 1589.77 452.103 1590.63C452.103 1591.32 454.172 1593.39 456.585 1595.11L460.894 1598.21L476.235 1582.18C493.99 1563.74 499.505 1554.26 497.954 1545.64C496.23 1536.85 490.025 1528.57 481.406 1524.27C472.788 1519.96 467.272 1519.61 459.86 1522.89Z" fill="#ECDECA"/>
<path d="M1107.81 1597.01C1102.98 1601.83 1101.95 1604.25 1101.95 1609.93C1101.95 1623.55 1110.39 1632.52 1122.98 1632.52C1130.73 1632.52 1139.52 1626.65 1142.63 1619.59C1145.73 1612 1145.73 1609.42 1142.28 1602.18C1138.66 1594.77 1132.11 1591.15 1121.6 1591.15C1114.87 1591.15 1112.81 1592.01 1107.81 1597.01Z" fill="#ECDECA"/>
<path d="M1434.11 1595.97C1431.52 1597.52 1429.45 1599.42 1429.45 1600.28C1429.45 1600.97 1434.8 1609.93 1441.35 1620.1C1448.07 1630.1 1453.07 1638.72 1452.72 1639.07C1452.55 1639.41 1441.17 1634.93 1427.56 1629.24C1413.94 1623.38 1402.05 1618.73 1401.01 1618.73C1400.15 1618.73 1397.39 1620.28 1395.15 1622L1390.84 1625.28L1408.77 1652.51C1418.42 1667.68 1427.04 1680.61 1427.73 1681.3C1429.28 1683.02 1438.07 1677.85 1438.07 1675.44C1438.07 1674.4 1432.56 1665.61 1425.83 1655.61C1419.11 1645.62 1413.94 1637.17 1414.28 1636.82C1414.63 1636.48 1426.52 1641.13 1440.66 1647.17L1466.51 1657.85L1471.34 1654.58C1473.92 1652.68 1475.99 1650.79 1475.99 1650.1C1475.99 1649.41 1467.55 1636.31 1457.38 1620.97L1438.76 1593.21L1434.11 1595.97Z" fill="#ECDECA"/>
<path d="M571.557 1604.76C570.351 1606.83 569.317 1608.56 569.317 1608.9C569.317 1609.25 575.177 1613.21 582.417 1617.69C589.484 1622.35 595 1626.48 594.483 1627C593.966 1627.34 582.589 1632.69 569.144 1638.72C545.012 1649.58 538.29 1653.54 538.29 1657.34C538.29 1659.06 572.764 1682.5 575.522 1682.5C576.901 1682.5 581.21 1677.16 581.383 1675.26C581.383 1674.57 575.522 1670.44 568.455 1665.96C561.215 1661.65 555.699 1657.68 555.872 1657.51C556.216 1657.34 568.11 1651.82 582.589 1645.44C599.826 1637.86 609.652 1632.52 611.548 1629.76C614.133 1625.79 613.961 1625.62 596.551 1614.24C586.726 1607.87 577.59 1602.35 576.211 1602.01C574.832 1601.66 572.592 1602.87 571.557 1604.76Z" fill="#ECDECA"/>
<path d="M992.49 1626.31L1011.45 1644.41H1038L1064.54 1644.58L1054.89 1654.75C1049.37 1660.44 1045.06 1665.44 1045.06 1666.13C1045.06 1668.71 1050.23 1676.81 1054.37 1680.61L1058.85 1684.74L1052.13 1691.98C1020.07 1726.8 1025.76 1778 1064.89 1804.89C1089.88 1822.12 1127.63 1820.57 1151.93 1801.27C1174.17 1783.69 1184.86 1754.73 1178.82 1728.53C1175.2 1713.01 1170.55 1704.39 1159.52 1692.67C1139.87 1672.16 1113.84 1665.61 1082.12 1673.02C1077.99 1673.88 1076.09 1673.37 1073.68 1670.61C1070.4 1666.99 1070.4 1666.82 1085.05 1651.82C1101.6 1634.93 1104.53 1628.55 1099.53 1619.07C1094.02 1608.21 1094.88 1608.38 1031.27 1608.38H973.529L992.49 1626.31ZM1129.7 1680.78C1155.73 1690.43 1172.62 1714.39 1172.79 1741.8C1172.96 1756.8 1171.76 1761.62 1165.72 1773.86C1155.21 1794.72 1133.66 1808.51 1109.53 1809.71C1079.88 1811.26 1056.78 1797.13 1043.86 1769.38C1039.72 1760.59 1039.03 1757.14 1039.2 1743.7C1039.2 1731.8 1040.24 1725.77 1043.17 1718.36C1046.79 1708.7 1060.75 1691.12 1064.54 1691.12C1065.58 1691.12 1072.3 1696.98 1079.71 1704.05C1086.95 1711.12 1094.02 1716.98 1095.4 1716.98C1100.05 1716.98 1105.39 1711.63 1105.39 1706.98C1105.39 1703.7 1102.46 1699.4 1094.71 1691.64C1088.85 1685.78 1084.54 1680.43 1085.05 1679.75C1087.12 1677.85 1104.19 1676.13 1113.15 1676.99C1117.98 1677.5 1125.39 1679.06 1129.7 1680.78Z" fill="#ECDECA"/>
<path d="M974.391 1705.77C974.391 1785.41 974.563 1787.82 977.838 1791.1C979.734 1792.99 983.009 1794.54 985.25 1794.54C994.731 1794.37 996.799 1788.68 996.799 1763.17V1741.97L1019.21 1719.56C1036.1 1702.67 1041.62 1696.12 1041.62 1692.85C1041.62 1689.57 1034.2 1681.12 1009.21 1656.13C991.455 1638.38 976.287 1623.9 975.597 1623.9C974.908 1623.9 974.391 1660.78 974.391 1705.77ZM1014.04 1692.85C1014.04 1693.36 1010.24 1698.02 1005.42 1703.19L996.971 1712.67L996.799 1693.71V1674.92L1005.42 1683.36C1010.24 1688.02 1014.04 1692.33 1014.04 1692.85Z" fill="#ECDECA"/>
<path d="M882.516 1670.61C860.28 1673.71 836.321 1691.81 826.495 1713.01C819.945 1727.32 818.911 1753 824.427 1767.31C835.631 1797.48 859.418 1814.71 891.652 1816.44C903.546 1817.13 908.372 1816.61 917.163 1813.68C941.812 1805.4 957.498 1789.55 965.944 1764.9C973.184 1743.52 967.84 1715.6 953.016 1697.5C935.952 1676.64 910.441 1666.82 882.516 1670.61ZM909.751 1678.19C920.093 1679.92 935.434 1688.71 944.398 1698.36C977.666 1734.04 961.807 1792.65 914.922 1807.47C899.753 1812.13 879.758 1810.58 865.279 1803.51C852.006 1796.96 839.768 1784.38 833.39 1770.76C829.253 1762.14 828.736 1758.86 828.736 1742.83C828.736 1726.29 829.253 1723.87 833.735 1714.39C843.215 1695.09 863.038 1680.26 883.378 1677.33C892.514 1676.13 896.651 1676.13 909.751 1678.19Z" fill="#ECDECA"/>
</svg>
